<?xml version="1.0" encoding="utf-8"?>
<!-- Generator: Adobe Illustrator 22.1.0, SVG Export Plug-In . SVG Version: 6.00 Build 0)  -->
<svg version="1.1" id="Layer_1" xmlns="http://www.w3.org/2000/svg" xmlns:xlink="http://www.w3.org/1999/xlink" x="0px" y="0px"
	 viewBox="0 0 512 512" style="enable-background:new 0 0 512 512;" xml:space="preserve">
<g>
	<path d="M256,31C132.2,31,31,132.2,31,256s101.2,225,225,225s225-101.2,225-225S380.9,31,256,31z M359.5,356.1
		c-4.5,6.8-12.4,9-19.2,4.5c-52.9-32.6-119.3-39.4-198-21.3c-7.9,2.3-14.6-3.3-16.9-10.1c-2.3-7.9,3.3-14.6,10.1-16.9
		c85.5-19.2,159.8-11.2,218.2,24.8C361.7,340.4,362.8,349.3,359.5,356.1L359.5,356.1z M386.5,294.2c-5.6,7.9-15.7,11.2-23.7,5.6
		c-60.7-37.1-153-48.3-223.8-25.8c-9,2.3-19.2-2.3-21.3-11.2c-2.3-9,2.3-19.2,11.3-21.3c82.1-24.8,183.3-12.4,253.1,30.4
		C388.8,275.2,392.2,286.4,386.5,294.2z M388.7,231.2c-72-42.7-192.4-47.3-261-25.8c-11.2,3.3-22.5-3.3-25.8-13.5
		c-3.3-11.3,3.3-22.5,13.5-25.8c79.9-23.7,211.5-19.2,294.8,30.4c10.1,5.6,13.5,19.2,7.9,29.3C412.3,233.5,398.9,236.8,388.7,231.2
		L388.7,231.2z"/>
</g>
</svg>
